<?xml version="1.0" encoding="UTF-8" standalone="no"?>
<svg
   xmlns:dc="http://purl.org/dc/elements/1.1/"
   xmlns:cc="http://creativecommons.org/ns#"
   xmlns:rdf="http://www.w3.org/1999/02/22-rdf-syntax-ns#"
   xmlns:svg="http://www.w3.org/2000/svg"
   xmlns="http://www.w3.org/2000/svg"
   id="svg4186"
   viewBox="0 0 512 512"
   height="512"
   width="512"
   version="1.1">
  <metadata
     id="metadata4196">
    <rdf:RDF>
      <cc:Work
         rdf:about="">
        <dc:format>image/svg+xml</dc:format>
        <dc:type
           rdf:resource="http://purl.org/dc/dcmitype/StillImage" />
        <dc:title>untitled</dc:title>
      </cc:Work>
    </rdf:RDF>
  </metadata>
  <defs
     id="defs4194" />
  <title
     id="title4188">untitled</title>
  <path
     style="stroke:none;stroke-opacity:1;fill:#000080;fill-opacity:1"
     id="path4190"
     d="M488 384h-8v-104c0-30.878-25.121-56-56-56h-136v-64h8c13.2 0 24-10.8 24-24v-80c0-13.2-10.8-24-24-24h-80c-13.2 0-24 10.8-24 24v80c0 13.2 10.8 24 24 24h8v64h-136c-30.878 0-56 25.122-56 56v104h-8c-13.2 0-24 10.8-24 24v80c0 13.2 10.8 24 24 24h80c13.2 0 24-10.8 24-24v-80c0-13.2-10.8-24-24-24h-8v-96h128v96h-8c-13.2 0-24 10.8-24 24v80c0 13.2 10.8 24 24 24h80c13.2 0 24-10.8 24-24v-80c0-13.2-10.8-24-24-24h-8v-96h128v96h-8c-13.2 0-24 10.8-24 24v80c0 13.2 10.8 24 24 24h80c13.2 0 24-10.8 24-24v-80c0-13.2-10.8-24-24-24zM96 480h-64v-64h64v64zM288 480h-64v-64h64v64zM224 128v-64h64v64h-64zM480 480h-64v-64h64v64z" />
</svg>
